<svg width="182.4" height="143.8" viewBox="0 0 182.4 143.8" xmlns="http://www.w3.org/2000/svg"><g id="svgGroup" stroke-linecap="round" fill-rule="evenodd" font-size="9pt" stroke="#ffffff" stroke-width="0.25mm" fill="#ffffff" style="stroke:#ffffff;stroke-width:0.25mm;fill:#ffffff"><path d="M 37.4 143.8 L 0 143.8 L 0 137.2 A 17.991 17.991 0 0 0 3.626 136.858 Q 5.791 136.412 7.448 135.386 A 9.658 9.658 0 0 0 9.2 134 A 19.505 19.505 0 0 0 11.958 130.473 Q 13.384 128.175 14.5 125.2 A 3746.496 3746.496 0 0 1 16.471 119.955 Q 17.487 117.261 18.626 114.246 A 6715.91 6715.91 0 0 1 19.4 112.2 L 60.6 0 L 65.4 0 L 110 113.8 Q 111.6 118 113.6 124.6 A 46.242 46.242 0 0 1 114.616 128.53 Q 115.468 132.606 115.204 135.752 A 16.757 16.757 0 0 1 115.2 135.8 L 122 135.4 L 128.8 135 L 128.8 143.8 L 83 143.8 L 83 137.2 A 28.662 28.662 0 0 0 86.376 136.927 Q 91.181 136.225 93 133.8 Q 95.4 130.6 94.8 126.2 Q 94.2 121.8 92.8 118.2 L 85.8 99.4 L 33.8 100.6 L 26.8 122 A 151.259 151.259 0 0 1 25.954 124.805 Q 25.116 127.484 24.401 129.34 A 41.853 41.853 0 0 1 24.3 129.6 Q 23.2 132.4 21.8 135.8 Q 25.8 135.6 29.7 135.4 Q 33.6 135.2 37.4 135 L 37.4 143.8 Z M 182.4 3.8 L 182.4 10.4 A 27.565 27.565 0 0 0 178.792 10.717 Q 174.231 11.448 172.1 13.8 Q 169.272 16.92 168.917 22.132 A 21.22 21.22 0 0 0 168.9 22.4 A 175.213 175.213 0 0 0 168.717 26.703 Q 168.659 28.602 168.629 30.676 A 306.561 306.561 0 0 0 168.6 35 L 168.6 120 A 496.379 496.379 0 0 1 168.586 123.839 Q 168.563 126.863 168.5 129.3 A 75.64 75.64 0 0 1 168.386 131.989 Q 168.311 133.207 168.198 134.261 A 33.852 33.852 0 0 1 168 135.8 L 175.2 135.4 L 182.4 135 L 182.4 143.8 L 137.4 143.8 L 137.4 137.2 A 31.056 31.056 0 0 0 140.9 136.831 Q 144.631 136.205 146.731 134.66 A 7.113 7.113 0 0 0 147.8 133.7 Q 150.6 130.6 150.9 125.1 A 191.103 191.103 0 0 0 151.115 119.614 Q 151.189 116.731 151.199 113.523 A 319.773 319.773 0 0 0 151.2 112.6 L 151.2 26.2 Q 151.2 22.2 151.4 18.5 Q 151.6 14.8 151.8 11.8 L 144.6 12.2 L 137.4 12.6 L 137.4 3.8 L 182.4 3.8 Z M 51 51.8 L 36.8 92 L 83 92 L 68.8 53.8 Q 66.6 47.6 64.3 41.5 Q 62 35.4 59.8 29.2 L 59.4 29.2 Q 57.4 34.8 55.3 40.4 Q 53.2 46 51 51.8 Z" vector-effect="non-scaling-stroke"/></g></svg>